<svg width="54" height="54" viewBox="0 0 54 54" fill="none" xmlns="http://www.w3.org/2000/svg">
<g clip-path="url(#clip0_1_4288)">
<path d="M27 4.5C14.58 4.5 4.5 14.58 4.5 27C4.5 39.42 14.58 49.5 27 49.5C39.42 49.5 49.5 39.42 49.5 27C49.5 14.58 39.42 4.5 27 4.5ZM36 29.25H29.25V36C29.25 37.2375 28.2375 38.25 27 38.25C25.7625 38.25 24.75 37.2375 24.75 36V29.25H18C16.7625 29.25 15.75 28.2375 15.75 27C15.75 25.7625 16.7625 24.75 18 24.75H24.75V18C24.75 16.7625 25.7625 15.75 27 15.75C28.2375 15.75 29.25 16.7625 29.25 18V24.75H36C37.2375 24.75 38.25 25.7625 38.25 27C38.25 28.2375 37.2375 29.25 36 29.25Z" fill="#0096C8"/>
</g>
<defs>
<clipPath id="clip0_1_4288">
<rect width="54" height="54" fill="white"/>
</clipPath>
</defs>
</svg>
